<?xml version="1.0" encoding="UTF-8" standalone="no"?>
<!DOCTYPE svg PUBLIC "-//W3C//DTD SVG 1.1//EN" "http://www.w3.org/Graphics/SVG/1.1/DTD/svg11.dtd">
<svg xmlns="http://www.w3.org/2000/svg" version="1.1" viewBox="0.00 0.00 272.00 272.00">
<path fill="#fe5257" d="
  M 51.00 90.50
  L 51.00 204.75
  A 3.25 3.25 0.0 0 1 47.75 208.00
  L 26.25 208.00
  A 3.25 3.25 0.0 0 1 23.00 204.75
  Q 23.00 145.51 23.00 85.52
  C 23.00 82.29 24.01 80.27 26.58 78.56
  Q 37.13 71.52 47.41 64.34
  A 1.86 1.85 27.2 0 1 48.48 64.00
  Q 99.55 64.00 150.59 64.00
  C 152.82 64.00 154.05 65.15 155.18 66.85
  Q 169.51 88.44 184.39 109.67
  Q 185.23 110.87 186.18 111.85
  A 1.09 1.08 46.8 0 0 187.68 111.90
  Q 188.84 110.85 189.86 109.40
  Q 204.70 88.15 219.08 66.57
  C 220.07 65.09 221.97 64.04 223.92 64.03
  Q 236.81 63.96 249.15 64.01
  A 2.54 2.54 0.0 0 1 251.25 67.96
  Q 234.23 93.52 217.36 118.82
  C 214.71 122.81 210.53 128.32 207.46 133.34
  C 207.09 133.94 207.20 134.63 206.43 135.03
  Q 206.03 135.24 205.92 135.69
  Q 205.82 136.11 205.97 136.48
  Q 206.06 136.70 206.54 137.05
  C 207.18 137.50 207.25 138.35 207.59 138.91
  C 210.58 143.75 214.58 149.00 217.20 152.94
  Q 234.09 178.27 251.25 204.03
  A 2.55 2.55 0.0 0 1 249.13 207.99
  Q 236.23 208.02 222.76 207.99
  Q 221.72 207.98 220.27 206.69
  Q 219.45 205.96 218.51 204.56
  Q 204.30 183.29 189.57 162.36
  Q 188.69 161.11 187.81 160.19
  A 1.10 1.10 0.0 0 0 186.27 160.13
  Q 185.18 161.13 184.15 162.60
  Q 169.31 183.85 154.92 205.42
  C 153.81 207.08 151.90 207.99 149.76 207.99
  Q 137.06 208.01 124.40 207.99
  A 1.72 1.71 -20.7 0 1 123.12 207.42
  Q 121.70 205.83 123.26 203.48
  Q 139.93 178.28 156.67 153.12
  C 159.33 149.13 163.39 143.79 166.42 138.87
  Q 166.65 138.50 166.78 137.96
  Q 166.96 137.22 167.24 137.08
  A 1.11 1.11 0.0 0 0 167.71 135.56
  Q 165.04 130.72 162.10 126.56
  C 153.69 114.66 145.75 102.45 137.68 90.38
  A 0.85 0.84 -16.5 0 0 136.97 90.00
  L 114.50 90.00
  Q 114.00 90.00 114.00 90.50
  L 114.00 205.00
  A 3.00 3.00 0.0 0 1 111.00 208.00
  L 89.00 208.00
  A 3.00 3.00 0.0 0 1 86.00 205.00
  L 86.00 90.75
  A 0.75 0.75 0.0 0 0 85.25 90.00
  L 51.50 90.00
  Q 51.00 90.00 51.00 90.50
  Z"
/>
</svg>
