<svg width="229" height="144" xmlns="http://www.w3.org/2000/svg" version="1.1">

 <g>
  <title>Layer 1</title>
  <path id="svg_1" d="m28,26.51083l0,114.25a3.25,3.25 0 0 1 -3.25,3.25l-21.5,0a3.25,3.25 0 0 1 -3.25,-3.25q0,-59.24 0,-119.23c0,-3.23 1.01,-5.25 3.58,-6.96q10.55,-7.04 20.83,-14.22a1.86,1.85 27.2 0 1 1.07,-0.34q51.07,0 102.11,0c2.23,0 3.46,1.15 4.59,2.85q14.33,21.59 29.21,42.82q0.84,1.2 1.79,2.18a1.09,1.08 46.8 0 0 1.5,0.05q1.16,-1.05 2.18,-2.5q14.84,-21.25 29.22,-42.83c0.99,-1.48 2.89,-2.53 4.84,-2.54q12.89,-0.07 25.23,-0.02a2.54,2.54 0 0 1 2.1,3.95q-17.02,25.56 -33.89,50.86c-2.65,3.99 -6.83,9.5 -9.9,14.52c-0.37,0.6 -0.26,1.29 -1.03,1.69q-0.4,0.21 -0.51,0.66q-0.1,0.42 0.05,0.79q0.09,0.22 0.57,0.57c0.64,0.45 0.71,1.3 1.05,1.86c2.99,4.84 6.99,10.09 9.61,14.03q16.89,25.33 34.05,51.09a2.55,2.55 0 0 1 -2.12,3.96q-12.9,0.03 -26.37,0q-1.04,-0.01 -2.49,-1.3q-0.82,-0.73 -1.76,-2.13q-14.21,-21.27 -28.94,-42.2q-0.88,-1.25 -1.76,-2.17a1.1,1.1 0 0 0 -1.54,-0.06q-1.09,1 -2.12,2.47q-14.84,21.25 -29.23,42.82c-1.11,1.66 -3.02,2.57 -5.16,2.57q-12.7,0.02 -25.36,0a1.72,1.71 -20.7 0 1 -1.28,-0.57q-1.42,-1.59 0.14,-3.94q16.67,-25.2 33.41,-50.36c2.66,-3.99 6.72,-9.33 9.75,-14.25q0.23,-0.37 0.36,-0.91q0.18,-0.74 0.46,-0.88a1.11,1.11 0 0 0 0.47,-1.52q-2.67,-4.84 -5.61,-9c-8.41,-11.9 -16.35,-24.11 -24.42,-36.18a0.85,0.84 -16.5 0 0 -0.71,-0.38l-22.47,0q-0.5,0 -0.5,0.5l0,114.5a3,3 0 0 1 -3,3l-22,0a3,3 0 0 1 -3,-3l0,-114.25a0.75,0.75 0 0 0 -0.75,-0.75l-33.75,0q-0.5,0 -0.5,0.5z" fill="#fe5257"/>
 </g>
</svg>